# xmcd
#
# Track frame offsets: 
#        150
#        1725
#        77432
#        141735
#        148260
#
# Disc length: 3819 seconds
#
# Revision: 0
# Processed by: cddbd v1.5.2PL0 Copyright (c) Steve Scherf et al.
# Submitted via: ExactAudioCopyFreeDBPlugin 1.0
#
DISCID=3e0ee905
DTITLE=杜煥 - 訴衷情 Disc 2
DYEAR=1975
DGENRE=南音
TTITLE0=曲前介紹
TTITLE1=客途秋恨 (一)
TTITLE2=客途秋恨 (二)
TTITLE3=曲前介紹
TTITLE4=女燒衣 (又名妓女痴情或老舉問米)
EXTD=
EXTT0=
EXTT1=
EXTT2=
EXTT3=
EXTT4=
PLAYORDER=
